<svg xmlns="http://www.w3.org/2000/svg" fill="none" viewBox="0 0 96 96" id="Grafana--Streamline-Svg-Logos" height="24" width="24"><desc>Grafana Streamline Icon: https://streamlinehq.com</desc><path fill="url(#a)" d="M91.1109 42.4843c-.1554-1.5796-.4143-3.3923-.9322-5.4121-.518-1.994-1.2948-4.1951-2.4342-6.4739-1.1394-2.2787-2.6154-4.6352-4.5317-6.9399-.7509-.9063-1.5796-1.7868-2.46-2.6413 1.3206-5.2568-1.6055-9.8143-1.6055-9.8143-5.0496-.3108-8.2607 1.5796-9.4518 2.4341-.2072-.0777-.3885-.1813-.5956-.2589-.8546-.3367-1.735-.6733-2.6673-.9582-.9063-.2848-1.8385-.5438-2.7966-.7768-.9582-.2331-1.9163-.4144-2.9003-.5697-.1813-.0259-.3367-.0518-.5179-.0777C58.0167 3.95207 51.6982 1 51.6982 1c-7.0694 4.47989-8.3901 10.7466-8.3901 10.7466s-.0259.1294-.0777.3625c-.3884.1036-.7768.233-1.1652.3366-.5438.1554-1.0876.3626-1.6056.5697-.5438.2072-1.0617.4144-1.6055.6474-1.0617.4661-2.1234.984-3.1592 1.5537-1.0099.5697-1.9939 1.1912-2.9521 1.8386-.1294-.0518-.2589-.1036-.2589-.1036-9.7884-3.7289-18.4634.751-18.4634.751-.8027 10.4099 3.9102 16.9614 4.8424 18.1526-.233.6474-.4402 1.2948-.6473 1.9421-.7251 2.3565-1.2689 4.7648-1.6055 7.2766-.0518.3626-.1036.7251-.1295 1.0876C7.41722 50.6413 4.75 59.7824 4.75 59.7824c7.5355 8.6749 16.3399 9.2187 16.3399 9.2187l.0259-.0259c1.1135 1.9939 2.4083 3.8843 3.8584 5.6711.6215.7509 1.243 1.4501 1.9163 2.1493-2.7449 7.8722.3884 14.3978.3884 14.3978 8.3901.3107 13.9058-3.6771 15.0711-4.5835.8287.2849 1.6832.5438 2.5377.751 2.5896.6733 5.2309 1.0617 7.8722 1.1653.6474.0259 1.3207.0518 1.9681.0259h.9322l.4143-.0259v.0259C60.0365 94.1972 66.9765 95 66.9765 95c4.946-5.205 5.2308-10.384 5.2308-11.4975l0-.0777 0-.1554 0-.233c1.0358-.7251 2.0198-1.502 2.9521-2.3565 1.968-1.7868 3.703-3.8325 5.1531-6.0336.1295-.2072.259-.4143.3885-.6215 5.5934.3107 9.5553-3.47 9.5553-3.47-.9322-5.8264-4.2468-8.6749-4.946-9.2187 0 0-.0259-.0259-.0776-.0518-.0518-.0259-.0518-.0518-.0518-.0518-.0259-.0259-.0777-.0518-.1295-.0777.0259-.3625.0518-.6992.0777-1.0617.0518-.6215.0518-1.2689.0518-1.8903v-.8287l0-.1554-.0259-.3884-.0259-.5179c0-.1813-.0259-.3366-.0518-.492-.0259-.1554-.0259-.3367-.0518-.492l-.0518-.492-.0777-.492c-.1036-.6474-.2071-1.2689-.3625-1.9163-.5956-2.5118-1.5796-4.8942-2.8485-7.0435-1.2948-2.1493-2.9003-4.0397-4.7388-5.6452-1.8127-1.6055-3.8585-2.9003-5.9819-3.8584-2.1493-.9581-4.3763-1.5796-6.6033-1.8645-1.1135-.1553-2.227-.2071-3.3405-.1812h-.5179l-.1295 0h-.1812l-.4143.0259c-.1554 0-.3108.0259-.4403.0259-.5697.0517-1.1394.1294-1.6832.233-2.227.4143-4.3245 1.2171-6.163 2.3306-1.8386 1.1135-3.4441 2.4859-4.7389 4.0397-1.2948 1.5537-2.3047 3.2887-3.0038 5.0754-.6992 1.7868-1.0877 3.6513-1.1912 5.4381-.0259.4402-.0259.9063-.0259 1.3465l0 .3367.0259.3625c.0259.2071.0259.4402.0518.6474.0776.9063.2589 1.7867.492 2.6154.492 1.6832 1.2688 3.211 2.227 4.5058.9581 1.2947 2.1234 2.3565 3.3405 3.211 1.217.8287 2.5377 1.4242 3.8325 1.8127 1.2947.3884 2.5895.5438 3.8066.5438l.4402 0 .2331 0c.0776 0 .1553 0 .233-.0259.1295 0 .259-.0259.3884-.0259.0259 0 .0777 0 .1036-.0259l.1295-.0259c.0777 0 .1554-.0259.2331-.0259.1553-.0259.2848-.0518.4402-.0777.1554-.0259.2848-.0518.4143-.1036.2849-.0518.5438-.1553.8028-.233.5179-.1813 1.0358-.3885 1.476-.6215.4661-.2331.8804-.5179 1.2948-.7769.1035-.0777.233-.1553.3366-.2589.4143-.3367.492-.9582.1554-1.3725-.2849-.3625-.8028-.4661-1.2171-.233-.1036.0518-.2072.1035-.3108.1553-.3625.1813-.725.3367-1.1135.4662-.3884.1294-.8027.233-1.217.3107-.2072.0259-.4144.0518-.6474.0777-.1036 0-.2072.0259-.3367.0259l-.3107 0-.3107 0c-.1295 0-.259 0-.3885-.0259l-.0259 0h-.1294c-.0518 0-.1295 0-.1813-.0259-.1295-.0259-.2331-.0259-.3625-.0518-.9582-.1295-1.9163-.4143-2.8226-.8287-.9323-.4143-1.8127-.984-2.6155-1.709-.8027-.7251-1.5019-1.5797-2.0457-2.5637-.5438-.984-.9322-2.0716-1.1135-3.211-.0777-.5697-.1295-1.1653-.1036-1.735 0-.1554.0259-.3107.0259-.4661l0-.0259v-.1813c0-.0777.0259-.1553.0259-.233.0259-.3108.0777-.6215.1295-.9323.4402-2.4859 1.6832-4.9201 3.5994-6.7586.4921-.4661 1.01-.8805 1.5538-1.2689.5438-.3884 1.1394-.7251 1.7608-1.0099.6215-.2849 1.243-.5179 1.9163-.6992.6474-.1813 1.3207-.2848 2.0198-.3625.3367-.0259.6733-.0518 1.0358-.0518l.2331 0h.4661l.0259 0h.0777l.2849.0259c.7509.0518 1.476.1553 2.2011.3366 1.4501.3108 2.8743.8546 4.195 1.5796 2.6413 1.4761 4.8942 3.7548 6.2667 6.4998.6991 1.3724 1.1911 2.8484 1.4242 4.3763.0518.3884.1036.7768.1295 1.1652l.0259.2849.0259.2848 0 .2849 0 .2848v.5438c0 .1813-.0259.4921-.0259.6733-.0259.4143-.0777.8546-.1295 1.2689-.0518.4143-.1295.8286-.2072 1.243-.0776.4143-.1812.8286-.2848 1.2171-.2072.8027-.4661 1.6055-.7769 2.4082-.6215 1.5537-1.4501 3.0557-2.4341 4.4281-1.994 2.7449-4.713 4.9719-7.8204 6.3962-1.5537.6991-3.1851 1.217-4.8683 1.476-.8287.1554-1.6832.2331-2.5378.2589h-1.1912l-.0259 0h-.0776c-.4662 0-.9064-.0259-1.3725-.0776-1.8127-.1295-3.5994-.4662-5.3603-.9582-1.735-.492-3.4182-1.1912-5.0237-2.0198-3.1851-1.7091-6.0595-4.0397-8.2865-6.8623-1.1135-1.3983-2.0975-2.9261-2.9003-4.5057-.8028-1.5797-1.4501-3.2629-1.9162-4.9461-.4662-1.709-.751-3.444-.8805-5.2049l-.0259-.3366v-1.4761l0-.0259v-.1553l0-.6474c.0259-.8546.1036-1.7609.2072-2.6414.1036-.8804.2589-1.7867.4402-2.6672.1813-.8804.3884-1.7609.6474-2.6413.492-1.735 1.1135-3.4182 1.8385-4.9978 1.4761-3.1592 3.3923-5.9818 5.697-8.2347.5697-.5697 1.1653-1.0876 1.7868-1.6055.6215-.492 1.2689-.9581 1.9421-1.3984.6474-.4402 1.3466-.8286 2.0458-1.1911.3366-.1813.6991-.3626 1.0617-.5179.1813-.0777.3625-.1554.5438-.2331.1813-.0777.3625-.1554.5438-.2331.7251-.3107 1.476-.5697 2.2529-.8027.1812-.0518.3884-.1036.5697-.1813.1812-.0518.3884-.1036.5697-.1554.3884-.1035.7768-.2071 1.1653-.2848.1812-.0518.3884-.0777.5956-.1295.2071-.0518.3884-.0777.5955-.1295.2072-.0259.3885-.0776.5956-.1035l.2849-.0518.3107-.0518c.2072-.0259.3885-.0518.5956-.0777.2331-.0259.4402-.0518.6733-.0777.1813-.0259.492-.0518.6733-.0777.1295-.0259.2848-.0259.4143-.0518l.2849-.0259.1294-.0259h.1554c.2331-.0259.4402-.0259.6733-.0518l.3366-.0258.0259 0h.2331c.1812 0 .3884-.0259.5697-.0259.7509-.0259 1.5278-.0259 2.2788 0 1.5019.0517 2.9779.233 4.4022.492 2.8743.5438 5.5675 1.4501 8.0275 2.6672 2.4601 1.1912 4.6353 2.6672 6.5515 4.2727.1295.1036.2331.2072.3626.3108.1035.1035.233.2071.3366.3107.2331.2072.4402.4143.6733.6215.233.2071.4402.4143.6474.6215.2071.2071.4143.4143.6214.6474.8028.8545 1.5538 1.709 2.227 2.5895 1.3466 1.735 2.4342 3.4959 3.2888 5.1532.0517.1035.1035.2071.1553.3107.0518.1036.1036.2072.1554.3107.1036.2072.2072.4144.2848.6215.1036.2072.1813.3885.2849.5956.0777.2072.1813.3885.2589.5956.3108.7769.6215 1.5278.8546 2.227.3884 1.1394.6733 2.1493.9063 3.0298.0777.3625.4144.5956.7769.5438.3884-.0259.6733-.3367.6733-.7251.0259-.9322 0-2.0457-.1295-3.3146Z"></path><defs><linearGradient id="a" x1="4329.27" x2="4329.27" y1="11511.3" y2="2928.07" gradientUnits="userSpaceOnUse"><stop stop-color="#fff100"></stop><stop offset="1" stop-color="#f05a28"></stop></linearGradient></defs></svg>