<svg clip-rule="evenodd" fill-rule="evenodd" stroke-linejoin="round" stroke-miterlimit="2" viewBox="0 0 512 512" xmlns="http://www.w3.org/2000/svg" xmlns:xlink="http://www.w3.org/1999/xlink"><linearGradient id="a" gradientUnits="userSpaceOnUse" x1="3755.77" x2="3755.770002" y1="81.7179" y2="81.7179"><stop offset="0" stop-color="#272727"/><stop offset="1" stop-color="#6c6c6c"/></linearGradient><clipPath id="b"><ellipse clip-rule="evenodd" cx="273.123" cy="324.015" rx="259.822" ry="250.584"/></clipPath><clipPath id="c"><path clip-rule="evenodd" d="m604.408 844.314c-2.427-3.469-2.446-8.258-.046-11.749 2.401-3.491 6.643-4.844 10.407-3.319 19.101 7.623 44.064 19.383 63.438 35.206 40.319 32.929 51.343 54.955 60.345 77.639 10.656 26.852 12.233 54.589 9.963 73.989-6.497 55.53-48.16 101.42-107.481 101.42s-106.541-45.45-107.481-101.42c-.567-33.708 10.432-60.637 22.435-79.86 2.994-4.783 8.606-6.751 13.621-4.776 5.014 1.975 8.148 7.387 7.606 13.136-1.722 12.136-2.853 24.792-2.283 34.904 1.931 34.216 22.239 43.016 43.151 42.806 22.288-.21 44.842-19.12 36.714-67.395-7.107-42.214-32.435-84.701-50.389-110.581z"/></clipPath><g transform="matrix(.92371046328 0 0 .95776263117 3.713430334 -54.32971318)"><ellipse cx="273.123" cy="324.015" fill="url(#a)" rx="259.822" ry="250.584"/><g clip-path="url(#b)" fill="#161616"><path d="m156.285 427.208 233.269 233.269 279.249-164.926-294.791-294.79z" transform="matrix(1.10322 0 0 1.064 -5.58287 50.5786)"/><path d="m208.628 178.613 277.307 277.306 104.092-91.289-293.104-293.104-2.748 67.463z" transform="matrix(1.10322 0 0 1.064 -10.239617 51.404119)"/><path d="m310.385 145.641 277.307 277.307 2.7-61.591-293.104-293.104-3.113 70.736z" transform="matrix(1.10322 0 0 1.064 -99.784178 80.212277)"/></g></g><path d="m256.049 220c30.173-.006 56.607-12.69 73.339-25.866 16.962-13.38 41.511-10.728 55.223 5.966 22.518 27.276 35.987 61.844 35.987 99.43 0 61.55-37.994 137.571-90.834 164.176-22.729 11.444-46.298 16.88-73.666 16.893h-.049-.049c-27.368-.013-50.937-5.449-73.666-16.893-52.84-26.605-90.834-102.626-90.834-164.176 0-37.586 13.469-72.154 35.987-99.43 13.712-16.694 38.261-19.346 55.223-5.966 16.732 13.176 43.166 25.86 73.339 25.866z" fill="#ffcb76" transform="matrix(.937502133 0 0 .937502133 16.000380451 15.99887987)"/><g transform="matrix(.61547875418 0 0 .56833278525 -138.257278469 -438.602978707)"><path d="m604.408 844.314c-2.427-3.469-2.446-8.258-.046-11.749 2.401-3.491 6.643-4.844 10.407-3.319 19.101 7.623 44.064 19.383 63.438 35.206 40.319 32.929 51.343 54.955 60.345 77.639 10.656 26.852 12.233 54.589 9.963 73.989-6.497 55.53-48.16 101.42-107.481 101.42s-106.541-45.45-107.481-101.42c-.567-33.708 10.432-60.637 22.435-79.86 2.994-4.783 8.606-6.751 13.621-4.776 5.014 1.975 8.148 7.387 7.606 13.136-1.722 12.136-2.853 24.792-2.283 34.904 1.931 34.216 22.239 43.016 43.151 42.806 22.288-.21 44.842-19.12 36.714-67.395-7.107-42.214-32.435-84.701-50.389-110.581z" fill="#ff6f00"/><g clip-path="url(#c)"><path d="m255.004 46.957c24.543 11.588 50.996 38.49 58.303 73.204 12.13 57.63-21.736 73.628-50.811 72.242-46.607-2.222-62.302-39.157-31.17-83.503 19.305-27.499 1.337-72.492 23.678-61.943z" fill="#ffd100" transform="matrix(1.28784 -.270602 .285942 1.59598 247.349 825.209)"/></g></g><path d="m228.197 408.524c-5.499 0-10.384-1.836-14.173-4.905-2.248-1.825-3.104-4.867-2.136-7.595.968-2.729 3.549-4.552 6.444-4.552 13.882-.072 37.78-.076 37.78-.076s23.897.004 37.779.076c2.895 0 5.476 1.823 6.444 4.552.968 2.728.112 5.77-2.136 7.595-3.789 3.069-8.673 4.905-14.172 4.905zm-10.957-29.647c-3.032 0-5.94-1.206-8.082-3.352-2.143-2.146-3.344-5.056-3.338-8.089.011-6.317.022-12.897.022-12.897 0-4.116-2.745-7.725-6.711-8.825-13.818-3.873-23.931-16.246-23.931-30.891 0-17.753 14.859-32.166 33.162-32.166 7.039 0 13.313-4.439 15.655-11.076 3.226-9.191 12.394-19.566 31.983-19.583h.223c19.589.017 28.757 10.392 31.983 19.583 2.343 6.637 8.616 11.076 15.655 11.076 18.303 0 33.162 14.413 33.162 32.166 0 14.645-10.112 27.018-23.93 30.891-3.966 1.1-6.711 4.709-6.712 8.825 0 0 .005 6.588.01 12.908.003 3.031-1.2 5.938-3.342 8.082-2.142 2.143-5.048 3.348-8.078 3.348-19.356 0-58.367 0-77.731 0z" fill="#161616" transform="matrix(.969368283 0 0 .969368283 7.733663818 15.59736638)"/></svg>